<svg width="22" height="22" viewBox="0 0 22 22" fill="none" xmlns="http://www.w3.org/2000/svg">
<path d="M13.1697 19.8904C17.3537 19.6134 20.6857 16.2334 20.9597 11.9904C21.0127 11.1604 21.0127 10.3004 20.9597 9.47042C20.6857 5.22842 17.3537 1.85042 13.1697 1.57142C11.7246 1.47619 10.2748 1.47619 8.82973 1.57142C4.64573 1.84942 1.31373 5.22842 1.03973 9.47142C0.986757 10.3106 0.986757 11.1523 1.03973 11.9914C1.13973 13.5364 1.82273 14.9674 2.62773 16.1754C3.09473 17.0204 2.78673 18.0754 2.29973 18.9984C1.94973 19.6634 1.77373 19.9954 1.91473 20.2354C2.05473 20.4754 2.36973 20.4834 2.99873 20.4984C4.24373 20.5284 5.08273 20.1764 5.74873 19.6854C6.12573 19.4064 6.31473 19.2674 6.44473 19.2514C6.57473 19.2354 6.83173 19.3414 7.34373 19.5514C7.80373 19.7414 8.33873 19.8584 8.82873 19.8914C10.2537 19.9854 11.7427 19.9854 13.1707 19.8914" stroke="#195FCF" stroke-width="1.5" stroke-linecap="round" stroke-linejoin="round"/>
<path d="M6.5 14L8.342 8.474C8.38824 8.33609 8.47664 8.2162 8.59471 8.13126C8.71278 8.04632 8.85455 8.00062 9 8.00062C9.14545 8.00062 9.28722 8.04632 9.40529 8.13126C9.52336 8.2162 9.61176 8.33609 9.658 8.474L11.5 14M14.5 8V14M7.5 12H10.5" stroke="#195FCF" stroke-width="1.5" stroke-linecap="round" stroke-linejoin="round"/>
</svg>
