<svg width="44" height="44" viewBox="0 0 44 44" fill="none" xmlns="http://www.w3.org/2000/svg">
<rect width="44" height="44" rx="22" fill="#EFF4FB"/>
<path d="M24.1697 30.8904C28.3537 30.6134 31.6857 27.2334 31.9597 22.9904C32.0127 22.1604 32.0127 21.3004 31.9597 20.4704C31.6857 16.2284 28.3537 12.8504 24.1697 12.5714C22.7246 12.4762 21.2748 12.4762 19.8297 12.5714C15.6457 12.8494 12.3137 16.2284 12.0397 20.4714C11.9868 21.3106 11.9868 22.1523 12.0397 22.9914C12.1397 24.5364 12.8227 25.9674 13.6277 27.1754C14.0947 28.0204 13.7867 29.0754 13.2997 29.9984C12.9497 30.6634 12.7737 30.9954 12.9147 31.2354C13.0547 31.4754 13.3697 31.4834 13.9987 31.4984C15.2437 31.5284 16.0827 31.1764 16.7487 30.6854C17.1257 30.4064 17.3147 30.2674 17.4447 30.2514C17.5747 30.2354 17.8317 30.3414 18.3437 30.5514C18.8037 30.7414 19.3387 30.8584 19.8287 30.8914C21.2537 30.9854 22.7427 30.9854 24.1707 30.8914" stroke="#195FCF" stroke-width="1.5" stroke-linecap="round" stroke-linejoin="round"/>
<path d="M17.5 25L19.342 19.474C19.3882 19.3361 19.4766 19.2162 19.5947 19.1313C19.7128 19.0463 19.8545 19.0006 20 19.0006C20.1455 19.0006 20.2872 19.0463 20.4053 19.1313C20.5234 19.2162 20.6118 19.3361 20.658 19.474L22.5 25M25.5 19V25M18.5 23H21.5" stroke="#195FCF" stroke-width="1.5" stroke-linecap="round" stroke-linejoin="round"/>
</svg>
