<svg width="54" height="44" viewBox="0 0 54 44" fill="none" xmlns="http://www.w3.org/2000/svg">
<g filter="url(#filter0_d_2643_12927)">
<path d="M4 4C4 1.79086 5.79086 0 8 0H46C48.2091 0 50 1.79086 50 4V32C50 34.2091 48.2091 36 46 36H8C5.79086 36 4 34.2091 4 32V4Z" fill="#262626"/>
</g>
<path d="M30.2321 40C29.4623 41.3333 27.5377 41.3333 26.7679 40L24.6029 36.25C23.8331 34.9167 24.7953 33.25 26.3349 33.25L30.6651 33.25C32.2047 33.25 33.1669 34.9167 32.3971 36.25L30.2321 40Z" fill="#262626"/>
<path d="M20.6875 12.5625C20.6719 14.4219 22.9531 16.1719 25.7031 16.5312L25.125 17.75C22.8359 17.3828 20.8203 16.1953 19.9219 14.5469C19 16.2031 16.9922 17.3828 14.7188 17.75L14.125 16.5312C16.875 16.1719 19.125 14.4375 19.1406 12.5625V11.7969H20.6875V12.5625ZM26.2812 19.125V20.3438H20.5938V25.3281H19.1406V20.3438H13.5156V19.125H26.2812ZM32.5312 13.5625C32.5312 15.2969 33.8906 16.9219 36.0469 17.5469L35.2969 18.7031C33.6641 18.2109 32.4297 17.1406 31.7969 15.7656C31.1641 17.2344 29.9141 18.3984 28.2344 18.9531L27.4844 17.7812C29.6562 17.1094 31.0156 15.4062 31.0312 13.5625V13.4062H27.8906V12.2031H35.6094V13.4062H32.5312V13.5625ZM38.9531 11.3281V18.9062H37.4688V11.3281H38.9531ZM31.25 19.5625V21.125H37.4844V19.5625H38.9531V25.1562H29.7969V19.5625H31.25ZM31.25 23.9531H37.4844V22.2969H31.25V23.9531Z" fill="white"/>
<defs>
<filter id="filter0_d_2643_12927" x="0" y="0" width="54" height="44" filterUnits="userSpaceOnUse" color-interpolation-filters="sRGB">
<feFlood flood-opacity="0" result="BackgroundImageFix"/>
<feColorMatrix in="SourceAlpha" type="matrix" values="0 0 0 0 0 0 0 0 0 0 0 0 0 0 0 0 0 0 127 0" result="hardAlpha"/>
<feOffset dy="4"/>
<feGaussianBlur stdDeviation="2"/>
<feComposite in2="hardAlpha" operator="out"/>
<feColorMatrix type="matrix" values="0 0 0 0 0 0 0 0 0 0 0 0 0 0 0 0 0 0 0.25 0"/>
<feBlend mode="normal" in2="BackgroundImageFix" result="effect1_dropShadow_2643_12927"/>
<feBlend mode="normal" in="SourceGraphic" in2="effect1_dropShadow_2643_12927" result="shape"/>
</filter>
</defs>
</svg>
