<svg width="22" height="18" viewBox="0 0 22 18" fill="none" xmlns="http://www.w3.org/2000/svg">
<path d="M1 4C1 2.34315 2.34315 1 4 1H18C19.6569 1 21 2.34315 21 4V14C21 15.6569 19.6569 17 18 17H4C2.34315 17 1 15.6569 1 14V4Z" fill="#195FCF"/>
<path d="M3 1H19C20.1 1 21 1.9 21 3V15C21 16.1 20.1 17 19 17H3C1.9 17 1 16.1 1 15V3C1 1.9 1.9 1 3 1Z" fill="#195FCF" stroke="white" stroke-width="1.5" stroke-linecap="round" stroke-linejoin="round"/>
<path d="M21 3L14.4408 7.59146C12.3749 9.0376 9.62515 9.0376 7.55923 7.59146L1 3" fill="#195FCF"/>
<path d="M21 3L14.4408 7.59146C12.3749 9.0376 9.62515 9.0376 7.55923 7.59146L1 3" stroke="white" stroke-width="1.5" stroke-linecap="round" stroke-linejoin="round"/>
</svg>
