<svg width="44" height="44" viewBox="0 0 44 44" fill="none" xmlns="http://www.w3.org/2000/svg">
<rect width="44" height="44" rx="22" fill="#EFF4FB"/>
<path d="M21.25 20.5C20.2554 20.5 19.3016 20.1049 18.5983 19.4017C17.8951 18.6984 17.5 17.7446 17.5 16.75C17.5 15.7554 17.8951 14.8016 18.5983 14.0983C19.3016 13.3951 20.2554 13 21.25 13C22.2446 13 23.1984 13.3951 23.9017 14.0983C24.6049 14.8016 25 15.7554 25 16.75C25 17.7446 24.6049 18.6984 23.9017 19.4017C23.1984 20.1049 22.2446 20.5 21.25 20.5ZM21.25 14.5C20.005 14.5 19 15.505 19 16.75C19 17.995 20.005 19 21.25 19C22.495 19 23.5 17.995 23.5 16.75C23.5 15.505 22.495 14.5 21.25 14.5Z" fill="#195FCF"/>
<path d="M30.25 26.5C29.83 26.5 29.5 26.17 29.5 25.75C29.5 25.33 29.83 25 30.25 25C30.67 25 31 24.67 31 24.25C31 23.2554 30.6049 22.3016 29.9016 21.5983C29.1984 20.8951 28.2446 20.5 27.25 20.5H25.75C25.33 20.5 25 20.17 25 19.75C25 19.33 25.33 19 25.75 19C26.995 19 28 17.995 28 16.75C28 15.505 26.995 14.5 25.75 14.5C25.33 14.5 25 14.17 25 13.75C25 13.33 25.33 13 25.75 13C26.7446 13 27.6984 13.3951 28.4016 14.0983C29.1049 14.8016 29.5 15.7554 29.5 16.75C29.5 17.68 29.17 18.52 28.6 19.18C30.835 19.78 32.5 21.82 32.5 24.25C32.5 25.495 31.495 26.5 30.25 26.5ZM12.25 26.5C11.005 26.5 10 25.495 10 24.25C10 21.82 11.65 19.78 13.9 19.18C13.345 18.52 13 17.68 13 16.75C13 15.7554 13.3951 14.8016 14.0983 14.0983C14.8016 13.3951 15.7554 13 16.75 13C17.17 13 17.5 13.33 17.5 13.75C17.5 14.17 17.17 14.5 16.75 14.5C15.505 14.5 14.5 15.505 14.5 16.75C14.5 17.995 15.505 19 16.75 19C17.17 19 17.5 19.33 17.5 19.75C17.5 20.17 17.17 20.5 16.75 20.5H15.25C14.2554 20.5 13.3016 20.8951 12.5983 21.5983C11.8951 22.3016 11.5 23.2554 11.5 24.25C11.5 24.67 11.83 25 12.25 25C12.67 25 13 25.33 13 25.75C13 26.17 12.67 26.5 12.25 26.5ZM25.75 31H16.75C15.505 31 14.5 29.995 14.5 28.75V27.25C14.5 24.355 16.855 22 19.75 22H22.75C25.645 22 28 24.355 28 27.25V28.75C28 29.995 26.995 31 25.75 31ZM19.75 23.5C18.7554 23.5 17.8016 23.8951 17.0983 24.5983C16.3951 25.3016 16 26.2554 16 27.25V28.75C16 29.17 16.33 29.5 16.75 29.5H25.75C26.17 29.5 26.5 29.17 26.5 28.75V27.25C26.5 26.2554 26.1049 25.3016 25.4017 24.5983C24.6984 23.8951 23.7446 23.5 22.75 23.5H19.75Z" fill="#195FCF"/>
</svg>
