<svg width="68" height="68" viewBox="0 0 68 68" fill="none" xmlns="http://www.w3.org/2000/svg">
<g filter="url(#filter0_d_2564_11475)">
<circle cx="34" cy="30" r="30" fill="#FFDB00"/>
<path d="M34.5627 16.7637C42.8795 16.7637 49.6205 22.0043 49.6205 28.4707C49.6205 34.9357 42.8795 40.1763 34.5641 40.1763C33.7362 40.1767 32.909 40.1241 32.0877 40.019L25.7669 44.1425C25.0485 44.5216 24.7947 44.4801 25.0901 43.5518L26.3692 38.2912C22.2395 36.2029 19.5078 32.5842 19.5078 28.4707C19.5078 22.0057 26.2473 16.7637 34.5641 16.7637H34.5627ZM43.0344 28.2919L45.1423 26.2552C45.2639 26.1292 45.3318 25.961 45.3316 25.7861C45.3314 25.6112 45.2631 25.4432 45.1412 25.3175C45.0192 25.1918 44.8531 25.1182 44.6779 25.1122C44.5026 25.1062 44.3319 25.1683 44.2016 25.2854L41.437 27.9544V25.7488C41.437 25.5698 41.3657 25.3981 41.2388 25.2715C41.1118 25.1449 40.9397 25.0737 40.7602 25.0737C40.5807 25.0737 40.4085 25.1449 40.2816 25.2715C40.1547 25.3981 40.0834 25.5698 40.0834 25.7488V29.4061C40.0581 29.5105 40.0581 29.6193 40.0834 29.7236V31.7818C40.0834 31.9609 40.1547 32.1326 40.2816 32.2592C40.4085 32.3858 40.5807 32.457 40.7602 32.457C40.9397 32.457 41.1118 32.3858 41.2388 32.2592C41.3657 32.1326 41.437 31.9609 41.437 31.7818V29.8323L42.0493 29.2416L44.097 32.1494C44.1481 32.222 44.213 32.2839 44.2881 32.3314C44.3632 32.379 44.447 32.4113 44.5346 32.4266C44.6222 32.4419 44.712 32.4398 44.7988 32.4204C44.8856 32.4011 44.9677 32.3649 45.0405 32.3139C45.1133 32.2629 45.1753 32.1981 45.2229 32.1232C45.2706 32.0483 45.303 31.9648 45.3183 31.8774C45.3337 31.79 45.3316 31.7005 45.3122 31.6139C45.2928 31.5273 45.2565 31.4454 45.2054 31.3728L43.0344 28.2905V28.2919ZM38.7928 31.0438H36.6993V25.7703C36.6913 25.5968 36.6165 25.4331 36.4906 25.3131C36.3647 25.1932 36.1973 25.1263 36.0232 25.1263C35.8491 25.1263 35.6817 25.1932 35.5557 25.3131C35.4298 25.4331 35.3551 25.5968 35.3471 25.7703V31.7189C35.3471 32.0908 35.6482 32.394 36.0225 32.394H38.7928C38.9723 32.394 39.1445 32.3229 39.2714 32.1963C39.3983 32.0697 39.4696 31.898 39.4696 31.7189C39.4696 31.5399 39.3983 31.3682 39.2714 31.2415C39.1445 31.1149 38.9723 31.0438 38.7928 31.0438ZM30.3943 29.4834L31.3923 27.0404L32.3071 29.4819L30.3943 29.4834ZM34.0121 30.1799L34.0149 30.157C34.0146 29.9869 33.9495 29.8233 33.8328 29.6993L32.3329 25.6945C32.2701 25.5036 32.1503 25.3365 31.9896 25.2153C31.829 25.0942 31.6351 25.0248 31.4339 25.0165C31.2312 25.0156 31.033 25.0763 30.8657 25.1905C30.6985 25.3047 30.57 25.4671 30.4975 25.6559L28.1143 31.4843C28.0464 31.6501 28.0473 31.836 28.1168 32.0011C28.1864 32.1662 28.3188 32.297 28.485 32.3647C28.6512 32.4324 28.8375 32.4315 29.003 32.3622C29.1686 32.2928 29.2997 32.1607 29.3676 31.995L29.8436 30.8321H32.8119L33.2392 31.9764C33.2683 32.0619 33.3144 32.1407 33.3746 32.2082C33.4349 32.2756 33.5081 32.3303 33.5899 32.369C33.6718 32.4078 33.7605 32.4297 33.851 32.4336C33.9415 32.4374 34.0318 32.4231 34.1167 32.3916C34.2015 32.36 34.2792 32.3117 34.345 32.2496C34.4108 32.1876 34.4634 32.113 34.4998 32.0302C34.5362 31.9475 34.5556 31.8583 34.5567 31.768C34.5579 31.6777 34.541 31.588 34.5068 31.5044L34.0121 30.1799ZM29.2485 25.7774C29.2485 25.5986 29.1774 25.4271 29.0508 25.3006C28.9242 25.174 28.7524 25.1027 28.5732 25.1023H23.92C23.7405 25.1023 23.5684 25.1735 23.4415 25.3001C23.3145 25.4267 23.2432 25.5984 23.2432 25.7774C23.2432 25.9565 23.3145 26.1282 23.4415 26.2548C23.5684 26.3814 23.7405 26.4525 23.92 26.4525H25.5834V31.7962C25.5834 31.9752 25.6547 32.1469 25.7816 32.2735C25.9086 32.4001 26.0807 32.4713 26.2602 32.4713C26.4397 32.4713 26.6119 32.4001 26.7388 32.2735C26.8657 32.1469 26.937 31.9752 26.937 31.7962V26.4525H28.5717C28.7512 26.4525 28.9234 26.3814 29.0503 26.2548C29.1772 26.1282 29.2485 25.9565 29.2485 25.7774Z" fill="black"/>
</g>
<defs>
<filter id="filter0_d_2564_11475" x="0" y="0" width="68" height="68" filterUnits="userSpaceOnUse" color-interpolation-filters="sRGB">
<feFlood flood-opacity="0" result="BackgroundImageFix"/>
<feColorMatrix in="SourceAlpha" type="matrix" values="0 0 0 0 0 0 0 0 0 0 0 0 0 0 0 0 0 0 127 0" result="hardAlpha"/>
<feOffset dy="4"/>
<feGaussianBlur stdDeviation="2"/>
<feComposite in2="hardAlpha" operator="out"/>
<feColorMatrix type="matrix" values="0 0 0 0 0 0 0 0 0 0 0 0 0 0 0 0 0 0 0.25 0"/>
<feBlend mode="normal" in2="BackgroundImageFix" result="effect1_dropShadow_2564_11475"/>
<feBlend mode="normal" in="SourceGraphic" in2="effect1_dropShadow_2564_11475" result="shape"/>
</filter>
</defs>
</svg>
