<svg width="20" height="21" viewBox="0 0 20 21" fill="none" xmlns="http://www.w3.org/2000/svg">
<path fill-rule="evenodd" clip-rule="evenodd" d="M3.25 9.055V7C3.25 5.20979 3.96116 3.4929 5.22703 2.22703C6.4929 0.961159 8.20979 0.25 10 0.25C11.7902 0.25 13.5071 0.961159 14.773 2.22703C16.0388 3.4929 16.75 5.20979 16.75 7V9.055C17.865 9.138 18.59 9.348 19.121 9.879C20 10.757 20 12.172 20 15C20 17.828 20 19.243 19.121 20.121C18.243 21 16.828 21 14 21H6C3.172 21 1.757 21 0.879 20.121C-5.96046e-08 19.243 0 17.828 0 15C0 12.172 -5.96046e-08 10.757 0.879 9.879C1.409 9.348 2.135 9.138 3.25 9.055ZM4.75 7C4.75 5.60761 5.30312 4.27226 6.28769 3.28769C7.27226 2.30312 8.60761 1.75 10 1.75C11.3924 1.75 12.7277 2.30312 13.7123 3.28769C14.6969 4.27226 15.25 5.60761 15.25 7V9.004C14.8673 9.00067 14.4507 8.99933 14 9H6C5.54867 8.99933 5.132 9.00067 4.75 9.004V7Z" fill="black"/>
</svg>
