<svg width="44" height="44" viewBox="0 0 44 44" fill="none" xmlns="http://www.w3.org/2000/svg">
<rect x="0.5" y="0.5" width="43" height="43" rx="21.5" stroke="#F7F7F7"/>
<path d="M22 32C27.523 32 32 27.523 32 22C32 16.477 27.523 12 22 12C16.477 12 12 16.477 12 22C12 27.523 16.477 32 22 32Z" stroke="#C9CAD4" stroke-width="2" stroke-linecap="round" stroke-linejoin="round"/>
<path d="M22 21.5C22.663 21.5 23.2989 21.2366 23.7678 20.7678C24.2366 20.2989 24.5 19.663 24.5 19C24.5 18.337 24.2366 17.7011 23.7678 17.2322C23.2989 16.7634 22.663 16.5 22 16.5C21.337 16.5 20.7011 16.7634 20.2322 17.2322C19.7634 17.7011 19.5 18.337 19.5 19C19.5 19.663 19.7634 20.2989 20.2322 20.7678C20.7011 21.2366 21.337 21.5 22 21.5Z" stroke="#C9CAD4" stroke-width="2" stroke-linejoin="round"/>
<path d="M15.0117 29.166C15.1837 26.5605 17.3517 24.5 20.0007 24.5H24.0007C26.6462 24.5 28.8122 26.555 28.9892 29.1555" stroke="#C9CAD4" stroke-width="2" stroke-linecap="round" stroke-linejoin="round"/>
</svg>
