<svg width="22" height="22" viewBox="0 0 22 22" fill="none" xmlns="http://www.w3.org/2000/svg">
<path d="M11 21C16.523 21 21 16.523 21 11C21 5.477 16.523 1 11 1C5.477 1 1 5.477 1 11C1 16.523 5.477 21 11 21Z" stroke="#195FCF" stroke-width="2" stroke-linecap="round" stroke-linejoin="round"/>
<path d="M11 10.5C11.663 10.5 12.2989 10.2366 12.7678 9.76777C13.2366 9.29893 13.5 8.66304 13.5 8C13.5 7.33696 13.2366 6.70107 12.7678 6.23223C12.2989 5.76339 11.663 5.5 11 5.5C10.337 5.5 9.70107 5.76339 9.23223 6.23223C8.76339 6.70107 8.5 7.33696 8.5 8C8.5 8.66304 8.76339 9.29893 9.23223 9.76777C9.70107 10.2366 10.337 10.5 11 10.5Z" stroke="#195FCF" stroke-width="2" stroke-linejoin="round"/>
<path d="M4.01172 18.166C4.18372 15.5605 6.35172 13.5 9.00072 13.5H13.0007C15.6462 13.5 17.8122 15.555 17.9892 18.1555" stroke="#195FCF" stroke-width="2" stroke-linecap="round" stroke-linejoin="round"/>
</svg>
