<svg width="599" height="327" viewBox="0 0 599 327" fill="none" xmlns="http://www.w3.org/2000/svg">
<path d="M29.2278 225.902H136.552C139.358 225.902 141.463 225.512 142.865 224.733C144.268 223.953 144.97 223.018 144.97 221.927C144.97 219.9 143.489 218.419 140.527 217.484C136.474 216.081 130.941 214.99 123.926 214.211C117.067 213.431 109.351 213.041 100.777 213.041C79.7334 213.041 59.1571 215.38 39.0483 220.056L32.5013 194.803C53.5453 189.971 75.8364 187.555 99.3745 187.555C109.974 187.555 119.639 188.1 128.368 189.192C137.098 190.127 144.113 191.452 149.413 193.166C157.207 195.816 163.052 199.714 166.949 204.858C171.002 210.002 173.029 215.613 173.029 221.693C173.029 226.837 171.548 231.747 168.586 236.424C165.78 240.944 161.571 244.607 155.96 247.413C150.504 250.219 144.035 251.622 136.552 251.622H67.8085C66.4056 253.025 65.7041 254.506 65.7041 256.065C65.7041 258.715 67.6526 260.897 71.5497 262.612C77.0055 265.106 85.8128 266.353 97.9716 266.353C110.598 266.353 124.316 265.028 139.124 262.378C153.933 259.728 167.027 256.143 178.406 251.622L188.695 275.472C176.38 280.46 161.961 284.435 145.438 287.397C129.07 290.515 113.482 292.073 98.673 292.073C81.8378 292.073 68.8997 290.047 59.8585 285.994C52.3762 282.565 46.7645 278.2 43.0233 272.9C39.438 267.756 37.6454 262.3 37.6454 256.532C37.6454 255.441 37.8013 253.804 38.113 251.622H29.2278V225.902ZM173.496 79.295V127.462H195.943V155.521H173.496V184.983H145.438V79.295H173.496ZM11.4573 85.6082H117.145V174.227H52.8439C41.1527 174.227 31.8778 171.109 25.019 164.874C18.1602 158.639 14.7308 149.987 14.7308 138.92C14.7308 136.581 14.8088 134.867 14.9646 133.776C16.3676 125.358 18.0823 117.876 20.1087 111.329H11.4573V85.6082ZM42.7895 140.089C42.7895 143.362 43.491 145.623 44.8939 146.87C46.4527 147.961 49.1027 148.506 52.8439 148.506H89.0863V111.329H49.1027C46.141 120.058 44.1145 128.476 43.0233 136.581L42.7895 140.089ZM253.546 249.752C253.546 253.493 255.338 256.688 258.924 259.338C262.665 261.988 268.276 263.859 275.759 264.95C286.047 266.353 294.698 267.054 301.713 267.054C308.728 267.054 317.379 266.353 327.667 264.95C335.15 263.859 340.683 261.988 344.269 259.338C348.01 256.688 349.88 253.493 349.88 249.752V248.115C349.88 243.906 348.01 240.399 344.269 237.593C340.683 234.631 335.851 233.15 329.772 233.15H273.654C267.575 233.15 262.665 234.631 258.924 237.593C255.338 240.399 253.546 243.906 253.546 248.115V249.752ZM225.487 248.115C225.487 240.788 227.513 234.007 231.566 227.772C235.775 221.537 241.543 216.627 248.869 213.041C256.196 209.3 264.457 207.43 273.654 207.43H287.684V194.102H206.781V168.381H396.645V194.102H315.742V207.43H329.772C338.969 207.43 347.23 209.3 354.557 213.041C361.883 216.627 367.573 221.537 371.626 227.772C375.835 234.007 377.939 240.788 377.939 248.115V249.752C377.939 260.04 373.886 268.847 365.78 276.173C357.675 283.5 346.373 288.176 331.876 290.203C320.964 291.762 310.91 292.541 301.713 292.541C292.516 292.541 282.462 291.762 271.55 290.203C257.053 288.176 245.752 283.5 237.646 276.173C229.54 268.847 225.487 260.04 225.487 249.752V248.115ZM224.084 79.5288H377.004V157.392H265.003C253.935 157.392 245.128 154.664 238.581 149.208C232.034 143.596 228.76 135.724 228.76 125.592C228.76 122.786 229.15 119.434 229.93 115.537C231.488 110.861 232.813 107.432 233.905 105.249H224.084V79.5288ZM256.585 126.293C256.585 128.476 257.131 129.957 258.222 130.736C259.469 131.359 261.729 131.671 265.003 131.671H348.945V105.249H265.003C262.041 109.77 259.391 115.226 257.053 121.617L256.585 126.293ZM580.512 79.295V283.188H552.453V79.295H580.512ZM423.617 97.0655H459.625C458.69 91.2979 458.222 83.5038 458.222 73.6833H486.281C486.281 83.9714 486.905 91.7655 488.152 97.0655H527.2C525.485 111.562 523.693 124.657 521.822 136.348C520.107 147.883 516.99 160.743 512.469 174.928C519.952 178.981 525.407 184.437 528.837 191.296C532.266 198.155 533.981 205.949 533.981 214.678C533.981 222.16 532.812 229.877 530.474 237.827C528.291 245.621 525.563 252.635 522.29 258.871H489.555C493.919 252.791 497.738 245.932 501.012 238.294C504.441 230.656 506.156 223.563 506.156 217.016C506.156 211.249 504.597 206.494 501.48 202.753C487.918 230.344 470.225 245.465 448.402 248.115C447.155 248.271 445.284 248.349 442.79 248.349C435.931 248.349 429.93 246.868 424.786 243.906C419.642 240.788 415.745 236.735 413.095 231.747C410.445 226.759 409.12 221.303 409.12 215.38C409.12 208.677 410.912 202.13 414.498 195.739C418.083 189.192 423.539 183.658 430.865 179.137C438.192 174.461 447.233 171.343 457.989 169.784C467.809 168.381 476.85 167.836 485.112 168.147C489.321 154.43 492.828 139.309 495.634 122.786H423.617V97.0655ZM445.128 222.394C456.352 221.147 466.328 211.638 475.058 193.868C471.628 193.868 467.186 194.258 461.73 195.037C453.468 196.284 447.155 198.856 442.79 202.753C438.581 206.494 436.477 210.469 436.477 214.678C436.477 217.172 437.256 219.199 438.815 220.758C440.374 222.16 442.478 222.706 445.128 222.394Z" fill="#195FCF"/>
</svg>
