<svg width="44" height="44" viewBox="0 0 44 44" fill="none" xmlns="http://www.w3.org/2000/svg">
<rect x="0.5" y="0.5" width="43" height="43" rx="21.5" stroke="#F7F7F7"/>
<path d="M20.4555 12.64C20.658 12.4369 20.8987 12.2756 21.1636 12.1656C21.4286 12.0556 21.7126 11.999 21.9995 11.999C22.2864 11.999 22.5705 12.0556 22.8354 12.1656C23.1004 12.2756 23.341 12.4369 23.5435 12.64L24.5525 13.651C24.9625 14.061 25.5185 14.291 26.0975 14.291H27.5265C27.8132 14.2906 28.0972 14.3468 28.3622 14.4563C28.6271 14.5658 28.8679 14.7265 29.0707 14.9292C29.2734 15.1319 29.4342 15.3726 29.5439 15.6375C29.6535 15.9024 29.7098 16.1863 29.7095 16.473L29.7085 17.902C29.7085 18.482 29.9385 19.037 30.3485 19.447L31.3585 20.457C31.5616 20.6595 31.7226 20.9001 31.8325 21.165C31.9425 21.4298 31.999 21.7138 31.999 22.0005C31.999 22.2873 31.9425 22.5712 31.8325 22.8361C31.7226 23.101 31.5616 23.3415 31.3585 23.544L30.3485 24.553C29.9385 24.963 29.7085 25.519 29.7085 26.098V27.527C29.7089 27.8137 29.6527 28.0977 29.5432 28.3627C29.4337 28.6276 29.273 28.8684 29.0704 29.0712C28.8677 29.274 28.627 29.4348 28.3621 29.5444C28.0972 29.654 27.8132 29.7103 27.5265 29.71L26.0975 29.709C25.5175 29.709 24.9625 29.939 24.5525 30.349L23.5425 31.359C23.34 31.5621 23.0994 31.7232 22.8346 31.8331C22.5697 31.943 22.2858 31.9996 21.999 31.9996C21.7123 31.9996 21.4283 31.943 21.1635 31.8331C20.8986 31.7232 20.658 31.5621 20.4555 31.359L19.4465 30.349C19.2438 30.1459 19.003 29.9848 18.7378 29.875C18.4727 29.7652 18.1885 29.7088 17.9015 29.709H16.4725C16.1858 29.7094 15.9018 29.6533 15.6369 29.5438C15.3719 29.4343 15.1312 29.2736 14.9284 29.0709C14.7256 28.8682 14.5648 28.6275 14.4552 28.3626C14.3455 28.0977 14.2893 27.8137 14.2895 27.527L14.2905 26.098C14.2905 25.518 14.0605 24.963 13.6505 24.553L12.6405 23.543C12.4375 23.3405 12.2764 23.1 12.1665 22.8351C12.0566 22.5702 12 22.2863 12 21.9995C12 21.7128 12.0566 21.4288 12.1665 21.164C12.2764 20.8991 12.4375 20.6585 12.6405 20.456L13.6505 19.447C14.0605 19.037 14.2905 18.481 14.2905 17.902V16.473C14.2901 16.1864 14.3463 15.9025 14.4557 15.6376C14.5651 15.3727 14.7257 15.132 14.9283 14.9293C15.1309 14.7265 15.3715 14.5657 15.6363 14.456C15.9011 14.3463 16.1849 14.2899 16.4715 14.29L17.9005 14.291C18.4805 14.291 19.0355 14.061 19.4455 13.651L20.4555 12.64Z" stroke="#C9CAD4" stroke-width="1.5" stroke-linecap="round" stroke-linejoin="round"/>
<path d="M20 19.0005C19.9999 18.6897 20.0723 18.3832 20.2113 18.1053C20.3503 17.8273 20.5522 17.5856 20.801 17.3993C21.0497 17.213 21.3384 17.0872 21.6442 17.0319C21.9501 16.9766 22.2646 16.9934 22.5628 17.0808C22.861 17.1683 23.1347 17.324 23.3623 17.5357C23.5898 17.7474 23.7649 18.0092 23.8736 18.3003C23.9823 18.5915 24.0217 18.9039 23.9886 19.2129C23.9555 19.5219 23.8509 19.819 23.683 20.0805C23.085 21.0105 22 21.8965 22 23.0005V23.5005M21.992 27.0005H22.001" stroke="#C9CAD4" stroke-width="1.5" stroke-linecap="round" stroke-linejoin="round"/>
</svg>
