<svg width="24" height="24" viewBox="0 0 24 24" fill="none" xmlns="http://www.w3.org/2000/svg">
<path d="M10.4555 2.63907C10.658 2.43588 10.8987 2.27467 11.1636 2.16467C11.4286 2.05467 11.7126 1.99805 11.9995 1.99805C12.2864 1.99805 12.5705 2.05467 12.8354 2.16467C13.1004 2.27467 13.341 2.43588 13.5435 2.63907L14.5525 3.65007C14.9625 4.06007 15.5185 4.29007 16.0975 4.29007H17.5265C17.8132 4.28967 18.0972 4.34583 18.3622 4.45534C18.6271 4.56484 18.8679 4.72553 19.0707 4.92822C19.2734 5.1309 19.4342 5.37159 19.5439 5.63651C19.6535 5.90142 19.7098 6.18536 19.7095 6.47207L19.7085 7.90107C19.7085 8.48107 19.9385 9.03606 20.3485 9.44606L21.3585 10.4561C21.5616 10.6586 21.7226 10.8991 21.8325 11.164C21.9425 11.4289 21.999 11.7128 21.999 11.9996C21.999 12.2863 21.9425 12.5703 21.8325 12.8351C21.7226 13.1 21.5616 13.3406 21.3585 13.5431L20.3485 14.5521C19.9385 14.9621 19.7085 15.5181 19.7085 16.0971V17.5261C19.7089 17.8128 19.6527 18.0967 19.5432 18.3617C19.4337 18.6267 19.273 18.8674 19.0704 19.0702C18.8677 19.273 18.627 19.4338 18.3621 19.5434C18.0972 19.653 17.8132 19.7093 17.5265 19.7091L16.0975 19.7081C15.5175 19.7081 14.9625 19.9381 14.5525 20.3481L13.5425 21.3581C13.34 21.5611 13.0994 21.7222 12.8346 21.8321C12.5697 21.942 12.2858 21.9986 11.999 21.9986C11.7123 21.9986 11.4283 21.942 11.1635 21.8321C10.8986 21.7222 10.658 21.5611 10.4555 21.3581L9.44652 20.3481C9.24379 20.1449 9.00296 19.9839 8.73783 19.874C8.4727 19.7642 8.18849 19.7078 7.90152 19.7081H6.47252C6.18581 19.7085 5.90185 19.6523 5.63688 19.5428C5.37192 19.4333 5.13115 19.2726 4.92838 19.0699C4.7256 18.8672 4.5648 18.6265 4.45517 18.3616C4.34555 18.0967 4.28925 17.8128 4.28952 17.5261L4.29052 16.0971C4.29052 15.5171 4.06052 14.9621 3.65052 14.5521L2.64052 13.5421C2.43748 13.3396 2.2764 13.099 2.16649 12.8341C2.05658 12.5693 2 12.2853 2 11.9986C2 11.7118 2.05658 11.4279 2.16649 11.163C2.2764 10.8981 2.43748 10.6576 2.64052 10.4551L3.65052 9.44606C4.06052 9.03606 4.29052 8.48007 4.29052 7.90107V6.47207C4.29012 6.18545 4.34625 5.90156 4.45569 5.63666C4.56513 5.37176 4.72574 5.13104 4.92832 4.92828C5.13089 4.72552 5.37147 4.56469 5.63627 4.45501C5.90107 4.34532 6.1849 4.28893 6.47152 4.28907L7.90052 4.29007C8.48052 4.29007 9.03552 4.06007 9.44552 3.65007L10.4555 2.63907Z" stroke="#195FCF" stroke-width="1.5" stroke-linecap="round" stroke-linejoin="round"/>
<path d="M10 8.99856C9.99992 8.68778 10.0723 8.38126 10.2113 8.10332C10.3503 7.82537 10.5522 7.58365 10.801 7.39733C11.0497 7.21101 11.3384 7.08522 11.6442 7.02994C11.9501 6.97466 12.2646 6.99141 12.5628 7.07886C12.861 7.16631 13.1347 7.32206 13.3623 7.53374C13.5898 7.74542 13.7649 8.00722 13.8736 8.29836C13.9823 8.5895 14.0217 8.90197 13.9886 9.21098C13.9555 9.51999 13.8509 9.81704 13.683 10.0786C13.085 11.0086 12 11.8946 12 12.9986V13.4986M11.992 16.9986H12.001" stroke="#195FCF" stroke-width="1.5" stroke-linecap="round" stroke-linejoin="round"/>
</svg>
