<svg width="40" height="40" viewBox="0 0 40 40" fill="none" xmlns="http://www.w3.org/2000/svg">
<rect x="0.5" y="0.5" width="39" height="39" rx="19.5" stroke="#F7F7F7"/>
<path fill-rule="evenodd" clip-rule="evenodd" d="M29.75 11H21.5L20.975 11.225L20 12.185L19.025 11.225L18.5 11H10.25L9.5 11.75V26.75L10.25 27.5H18.185L19.475 28.775H20.525L21.815 27.5H29.75L30.5 26.75V11.75L29.75 11ZM19.25 26.48L18.98 26.225L18.5 26H11V12.5H18.185L19.295 13.61L19.25 26.48ZM29 26H21.5L20.975 26.225L20.765 26.42V13.55L21.815 12.5H29V26ZM17 15.5H12.5V17H17V15.5ZM17 21.5H12.5V23H17V21.5ZM12.5 18.5H17V20H12.5V18.5ZM27.5 15.5H23V17H27.5V15.5ZM23 18.5H27.5V20H23V18.5ZM23 21.5H27.5V23H23V21.5Z" fill="#C9CAD4"/>
</svg>
