<svg width="243" height="38" viewBox="0 0 243 38" fill="none" xmlns="http://www.w3.org/2000/svg">
<path d="M0 8C0 3.58172 3.58172 0 8 0H235C239.418 0 243 3.58172 243 8V38H8C3.58172 38 0 34.4183 0 30V8Z" fill="#CCFF00"/>
<path d="M18.7207 13.7051L18.7207 15.4961L21.332 15.4961L21.332 13.7051L23.0684 13.7051L23.0684 20.0078L16.998 20.0078L16.998 13.7051L18.7207 13.7051ZM18.7207 18.6406L21.332 18.6406L21.332 16.8223L18.7207 16.8223L18.7207 18.6406ZM26.7871 12.8301L26.7871 21.9629L25.0371 21.9629L25.0371 12.8301L26.7871 12.8301ZM27.0742 23.6445L27.0742 25.0391L18.4199 25.0391L18.4199 21.0469L20.1699 21.0469L20.1699 23.6445L27.0742 23.6445ZM41.6484 12.8164L41.6484 17.875L43.2754 17.875L43.2754 19.3242L41.6484 19.3242L41.6484 25.2578L39.8848 25.2578L39.8848 12.8164L41.6484 12.8164ZM31.5449 21.7441C32.4541 21.7441 33.5137 21.7441 34.6211 21.7168L34.6211 20.6504C33.2949 20.3906 32.4336 19.5498 32.4473 18.3945C32.4336 17 33.6914 16.0566 35.5098 16.0566C37.2871 16.0566 38.5586 17 38.5723 18.3945C38.5586 19.5498 37.6836 20.3975 36.3711 20.6504L36.3711 21.6484C37.3555 21.6006 38.3467 21.5186 39.2695 21.3887L39.3789 22.6602C36.7266 23.1523 33.8828 23.166 31.7773 23.166L31.5449 21.7441ZM39.1738 14.1973L39.1738 15.5645L31.791 15.5645L31.791 14.1973L34.6211 14.1973L34.6211 12.8848L36.3711 12.8848L36.3711 14.1973L39.1738 14.1973ZM35.5098 17.3828C34.6621 17.3828 34.0879 17.752 34.1016 18.3945C34.0879 19.0508 34.6621 19.4062 35.5098 19.4062C36.3301 19.4062 36.8906 19.0508 36.8906 18.3945C36.8906 17.752 36.3301 17.3828 35.5098 17.3828ZM50.2207 13.8281L50.2207 14.7715L52.5449 14.7715L52.5449 12.8301L54.2812 12.8301L54.2812 21.8809L52.5449 21.8809L52.5449 18.832L50.2207 18.832L50.2207 19.8848L44.3145 19.8848L44.3145 13.8281L50.2207 13.8281ZM46.0508 15.209L46.0508 18.5312L48.5117 18.5312L48.5117 15.209L46.0508 15.209ZM54.541 23.6445L54.541 25.0391L45.9961 25.0391L45.9961 21.0195L47.7598 21.0195L47.7598 23.6445L54.541 23.6445ZM50.2207 17.4512L52.5449 17.4512L52.5449 16.1797L50.2207 16.1797L50.2207 17.4512ZM61.5684 12.9941C64.4258 12.9941 66.0801 13.7461 66.0937 15.1133C66.0801 16.4941 64.4258 17.2461 61.5684 17.2461C58.6973 17.2461 57.0293 16.4941 57.0293 15.1133C57.0293 13.7461 58.6973 12.9941 61.5684 12.9941ZM61.5684 14.2656C59.7363 14.2656 58.8477 14.5664 58.8613 15.1133C58.8477 15.7285 59.7363 15.9609 61.5684 15.9609C63.4141 15.9609 64.2891 15.7285 64.2891 15.1133C64.2891 14.5664 63.4141 14.2656 61.5684 14.2656ZM67.2422 17.834L67.2422 19.2148L55.8945 19.2148L55.8945 17.834L67.2422 17.834ZM65.8613 19.9395L65.8613 23.1113L58.9297 23.1113L58.9297 23.8633L66.1895 23.8633L66.1895 25.1758L57.2207 25.1758L57.2207 21.8945L64.1387 21.8945L64.1387 21.2109L57.207 21.2109L57.207 19.9395L65.8613 19.9395ZM81.7207 12.8164L81.7207 25.2852L79.998 25.2852L79.998 18.6133L77.8105 18.6133L77.8105 17.2051L79.998 17.2051L79.998 12.8164L81.7207 12.8164ZM77.6055 13.8555L77.6055 15.2637L73.5312 15.2637L73.5312 17.3281L77.1543 17.3281L77.1543 18.6953L73.5312 18.6953L73.5312 21.0469C75.2539 21.0332 76.6348 20.9717 78.1797 20.7324L78.3574 22.127C76.5391 22.4004 74.9121 22.4687 72.7793 22.4687L71.7949 22.4687L71.7949 13.8555L77.6055 13.8555ZM93.7246 12.8164L93.7246 25.2578L91.9746 25.2578L91.9746 12.8164L93.7246 12.8164ZM88.1875 16.7129C88.1875 18.5176 89.2129 20.5547 91.2773 21.4023L90.334 22.7422C88.9189 22.1611 87.9072 20.9717 87.3398 19.543C86.7861 21.0605 85.7676 22.332 84.3184 22.9336L83.3887 21.5937C85.4395 20.7051 86.4512 18.6133 86.4512 16.7129L86.4512 16.2344L83.7988 16.2344L83.7988 14.8398L86.4375 14.8398L86.4375 13.0898L88.1738 13.0898L88.1738 14.8398L90.7715 14.8398L90.7715 16.2344L88.1875 16.2344L88.1875 16.7129ZM105.236 12.8164L105.236 17.6836L107.068 17.6836L107.068 19.1191L105.236 19.1191L105.236 25.2578L103.514 25.2578L103.514 12.8164L105.236 12.8164ZM102.666 14.6758L102.666 16.0703L95.3516 16.0703L95.3516 14.6758L98.168 14.6758L98.168 13.0078L99.918 13.0078L99.918 14.6758L102.666 14.6758ZM99.043 16.7676C100.861 16.7676 102.215 17.998 102.215 19.7344C102.215 21.4707 100.861 22.7012 99.043 22.7012C97.2109 22.7012 95.8574 21.4707 95.8574 19.7344C95.8574 17.998 97.2109 16.7676 99.043 16.7676ZM99.043 18.1758C98.168 18.1895 97.5254 18.7773 97.5254 19.7344C97.5254 20.7051 98.168 21.2793 99.043 21.2656C99.918 21.2793 100.547 20.7051 100.547 19.7344C100.547 18.7773 99.918 18.1895 99.043 18.1758ZM113.945 13.8281L113.945 14.7715L116.27 14.7715L116.27 12.8301L118.006 12.8301L118.006 21.8809L116.27 21.8809L116.27 18.832L113.945 18.832L113.945 19.8848L108.039 19.8848L108.039 13.8281L113.945 13.8281ZM109.775 15.209L109.775 18.5312L112.236 18.5312L112.236 15.209L109.775 15.209ZM118.266 23.6445L118.266 25.0391L109.721 25.0391L109.721 21.0195L111.484 21.0195L111.484 23.6445L118.266 23.6445ZM113.945 17.4512L116.27 17.4512L116.27 16.1797L113.945 16.1797L113.945 17.4512ZM132.662 12.8164L132.662 17.4375L134.494 17.4375L134.494 18.8594L132.662 18.8594L132.662 25.2852L130.912 25.2852L130.912 12.8164L132.662 12.8164ZM129.176 13.9648L129.176 15.373L125.074 15.373L125.074 20.8281C126.879 20.8076 128.369 20.7256 130.023 20.4316L130.215 21.8945C128.287 22.2227 126.592 22.2773 124.391 22.2637L123.338 22.2637L123.338 13.9648L129.176 13.9648ZM140.619 13.0488C143.381 13.0488 145.131 13.9648 145.145 15.4824C145.131 16.9863 143.381 17.9023 140.619 17.8887C137.871 17.9023 136.08 16.9863 136.08 15.4824C136.08 13.9648 137.871 13.0488 140.619 13.0488ZM140.619 14.4023C138.883 14.4023 137.885 14.7715 137.898 15.4824C137.885 16.1797 138.883 16.5352 140.619 16.5352C142.342 16.5352 143.34 16.1797 143.34 15.4824C143.34 14.7715 142.342 14.4023 140.619 14.4023ZM144.939 20.8828L144.939 25.1211L136.258 25.1211L136.258 20.8828L144.939 20.8828ZM137.98 22.2637L137.98 23.7266L143.23 23.7266L143.23 22.2637L137.98 22.2637ZM146.293 18.6133L146.293 20.0078L134.945 20.0078L134.945 18.6133L146.293 18.6133ZM152.719 13.4453C155.344 13.459 157.395 14.8672 157.408 17.0273C157.395 19.2012 155.344 20.623 152.719 20.6094C150.08 20.623 148.043 19.2012 148.043 17.0273C148.043 14.8672 150.08 13.459 152.719 13.4453ZM152.719 14.8672C150.996 14.8535 149.738 15.6875 149.738 17.0273C149.738 18.3809 150.996 19.1875 152.719 19.1875C154.441 19.1875 155.672 18.3809 155.686 17.0273C155.672 15.6875 154.441 14.8535 152.719 14.8672ZM158.434 22.332L158.434 23.7402L147.045 23.7402L147.045 22.332L158.434 22.332ZM170.533 22.4414L170.533 23.877L159.145 23.877L159.145 22.4414L163.943 22.4414L163.943 20.5684L160.457 20.5684L160.457 16.3848L167.498 16.3848L167.498 15.0176L160.443 15.0176L160.443 13.623L169.221 13.623L169.221 17.752L162.207 17.752L162.207 19.1465L169.508 19.1465L169.508 20.5684L165.68 20.5684L165.68 22.4414L170.533 22.4414ZM184.957 20.4453L184.957 25.1211L176.645 25.1211L176.645 20.4453L184.957 20.4453ZM178.367 21.8262L178.367 23.7266L183.248 23.7266L183.248 21.8262L178.367 21.8262ZM176.891 13.4727L176.891 17.9844C178.449 17.9639 180.049 17.8408 181.717 17.5059L181.895 18.9687C179.926 19.3652 178.066 19.4609 176.207 19.4609L175.168 19.4609L175.168 13.4727L176.891 13.4727ZM184.957 12.8164L184.957 19.9258L183.221 19.9258L183.221 16.3164L180.131 16.3164L180.131 14.9082L183.221 14.9082L183.221 12.8164L184.957 12.8164ZM190.002 13.6914C191.684 13.6914 192.935 15.0791 193.187 17.3145L195.348 17.3145L195.348 12.8164L197.07 12.8164L197.07 25.2852L195.348 25.2852L195.348 18.709L193.201 18.709C193.017 21.1016 191.738 22.5645 190.002 22.5645C188.115 22.5645 186.762 20.8555 186.775 18.1211C186.762 15.4141 188.115 13.6914 190.002 13.6914ZM190.002 15.2637C189.072 15.2637 188.43 16.2754 188.443 18.1211C188.43 19.9805 189.072 20.9785 190.002 20.9785C190.945 20.9785 191.561 19.9805 191.561 18.1211C191.561 16.2754 190.945 15.2637 190.002 15.2637ZM208.486 12.8164L208.486 17.5879L210.25 17.5879L210.25 19.0234L208.486 19.0234L208.486 25.2305L206.736 25.2305L206.736 12.8164L208.486 12.8164ZM205.164 14.0879C205.15 17.8066 203.701 21.0332 199.518 23.084L198.533 21.7441C201.479 20.2676 203.059 18.2852 203.387 15.5098L199.244 15.5098L199.244 14.0879L205.164 14.0879ZM222.158 22.373L222.158 23.8086L210.77 23.8086L210.77 22.373L213.312 22.373L213.312 19.3242C212.349 18.75 211.768 17.8682 211.768 16.7676C211.768 14.7578 213.736 13.418 216.443 13.418C219.137 13.418 221.119 14.7578 221.133 16.7676C221.126 17.8408 220.559 18.7158 219.629 19.2969L219.629 22.373L222.158 22.373ZM216.443 14.7988C214.666 14.7988 213.49 15.5098 213.49 16.7676C213.49 17.9844 214.666 18.7363 216.443 18.7363C218.207 18.7363 219.396 17.9844 219.41 16.7676C219.396 15.5098 218.207 14.7988 216.443 14.7988ZM215.035 22.373L217.865 22.373L217.865 19.9531C217.421 20.042 216.942 20.0898 216.443 20.0898C215.944 20.0898 215.473 20.0488 215.035 19.9531L215.035 22.373ZM225.699 14.1016L225.521 21.0332L223.771 21.0332L223.594 14.1016L225.699 14.1016ZM224.66 24.123C224.018 24.123 223.498 23.6035 223.512 22.9746C223.498 22.3457 224.018 21.8398 224.66 21.8398C225.262 21.8398 225.795 22.3457 225.795 22.9746C225.795 23.6035 225.262 24.123 224.66 24.123Z" fill="#195FCF"/>
</svg>
