<svg width="91" height="26" viewBox="0 0 91 26" fill="none" xmlns="http://www.w3.org/2000/svg">
<rect width="91" height="26" rx="13" fill="#FFD91C"/>
<path d="M20.2426 8.75733C19.5449 8.05963 18.6859 7.54477 17.7417 7.25835C16.7975 6.97193 15.7972 6.92279 14.8294 7.11529C13.8617 7.30779 12.9564 7.73598 12.1936 8.36194C11.4309 8.9879 10.8343 9.7923 10.4567 10.7039C10.0791 11.6155 9.93218 12.6061 10.0289 13.5881C10.1256 14.57 10.463 15.513 11.0112 16.3334C11.5593 17.1538 12.3014 17.8264 13.1716 18.2915C14.0418 18.7566 15.0132 19 15.9999 19C18.7053 19 20.3453 17.1967 21.9999 15.3333" stroke="#195FCF" stroke-linecap="round" stroke-linejoin="round"/>
<path d="M21.9987 18V15.3333H19.332" stroke="#195FCF" stroke-linecap="round" stroke-linejoin="round"/>
<path d="M33.168 8.12891C35.418 8.14062 37.0469 9.24219 37.0469 10.918C37.0469 12.4941 35.6816 13.5312 33.7188 13.6953V15.7578H37.9961V16.6836H28.3867V15.7578H32.6172V13.6953C30.666 13.5312 29.3008 12.4941 29.3008 10.918C29.3008 9.24219 30.9297 8.14062 33.168 8.12891ZM33.168 9.04297C31.5508 9.03125 30.3789 9.78125 30.3789 10.918C30.3789 12.1016 31.5508 12.8281 33.168 12.8398C34.7969 12.8281 35.9688 12.1016 35.9688 10.918C35.9688 9.78125 34.7969 9.03125 33.168 9.04297ZM47.2305 9.88672V10.7891H40.0234V7.64844H41.1133V9.88672H47.2305ZM48.3555 11.7148V12.6055H38.7461V11.7148H48.3555ZM47.1484 13.4492V16.0156H41.0547V16.9883H47.5117V17.8672H39.9414V15.1953H46.0469V14.3164H39.918V13.4492H47.1484ZM60.3086 7.49609V9.60547H61.832V10.543H60.3086V12.7578H59.1953V7.49609H60.3086ZM53.6523 7.96484V11.3867C55.0645 11.375 56.5527 11.2637 58.1641 10.9414L58.3047 11.8672C56.5352 12.2188 54.9414 12.3242 53.3945 12.3242H52.5391V7.96484H53.6523ZM60.3086 13.2383V15.9102H54.6484V16.9648H60.6719V17.8672H53.5469V15.0547H59.1953V14.1172H53.5234V13.2383H60.3086ZM70.8906 7.49609V11.5977H72.2734V12.5352H70.8906V17.9961H69.7773V7.49609H70.8906ZM64.9141 10.4727C64.9141 11.6504 65.0547 13.2617 65.875 14.3984C66.6543 13.2852 66.8125 11.6914 66.8242 10.4727V9.41797H66.0742V8.51562H69.0039V9.41797H67.8789V10.4727C67.8789 12.0898 68.1836 14.0117 69.4961 14.9727L68.7812 15.7812C68.0312 15.2012 67.5918 14.2812 67.3398 13.2383C67.0996 14.3047 66.6543 15.2773 65.8633 15.875C65.084 15.2832 64.6387 14.3047 64.3984 13.25C64.1348 14.2812 63.6953 15.207 62.957 15.7812L62.2422 14.9727C63.543 14 63.8594 12.043 63.8594 10.4727V9.41797H62.6055V8.51562H65.6523V9.41797H64.9141V10.4727ZM82.4102 15.8047V16.7422H72.8008V15.8047H77.0312V13.9648H73.9727V10.625H80.1367V9.14844H73.9492V8.23438H81.2383V11.5156H75.0742V13.0508H81.4844V13.9648H78.1328V15.8047H82.4102Z" fill="#195FCF"/>
</svg>
