<svg width="216" height="38" viewBox="0 0 216 38" fill="none" xmlns="http://www.w3.org/2000/svg">
<path d="M0 8C0 3.58172 3.58172 0 8 0H208C212.418 0 216 3.58172 216 8V38H8C3.58172 38 0 34.4183 0 30V8Z" fill="#FFD91C"/>
<path d="M26.418 16.6992L26.418 17.752L17.832 17.752L17.832 13.1309L26.3223 13.1309L26.3223 14.1836L19.3496 14.1836L19.3496 14.9219L26.0215 14.9219L26.0215 15.9336L19.3496 15.9336L19.3496 16.6992L26.418 16.6992ZM27.6484 18.4492L27.6484 19.5977L16.4375 19.5977L16.4375 18.4492L27.6484 18.4492ZM26.2676 20.3086L26.2676 23.1797L19.2402 23.1797L19.2402 24.0137L26.6094 24.0137L26.6094 25.1074L17.75 25.1074L17.75 22.1406L24.7773 22.1406L24.7773 21.3887L17.7363 21.3887L17.7363 20.3086L26.2676 20.3086ZM38.8047 12.8574L38.8047 25.2305L37.3008 25.2305L37.3008 12.8574L38.8047 12.8574ZM35.0039 13.9375L35.0039 18.5723L30.752 18.5723L30.752 21.0605C32.7002 21.0469 34.3818 20.9512 36.3027 20.623L36.4395 21.8672C34.334 22.2363 32.4883 22.3047 30.2734 22.3047L29.1934 22.3047L29.1934 17.3691L33.459 17.3691L33.459 15.168L29.1797 15.168L29.1797 13.9375L35.0039 13.9375ZM46.9531 13.8965L46.9531 14.8809L49.4414 14.8809L49.4414 12.8711L50.959 12.8711L50.959 21.8672L49.4414 21.8672L49.4414 18.75L46.9531 18.75L46.9531 19.8164L41.1426 19.8164L41.1426 13.8965L46.9531 13.8965ZM42.6602 15.0996L42.6602 18.627L45.4492 18.627L45.4492 15.0996L42.6602 15.0996ZM51.2324 23.7402L51.2324 24.9707L42.8105 24.9707L42.8105 21.0332L44.3555 21.0332L44.3555 23.7402L51.2324 23.7402ZM46.9531 17.5332L49.4414 17.5332L49.4414 16.125L46.9531 16.125L46.9531 17.5332ZM65.7109 12.8574L65.7109 17.5469L67.6113 17.5469L67.6113 18.791L65.7109 18.791L65.7109 25.2305L64.1934 25.2305L64.1934 12.8574L65.7109 12.8574ZM62.3203 14.0332L62.3203 15.2637L58.0547 15.2637L58.0547 20.9375C59.9756 20.9375 61.4932 20.8418 63.1953 20.541L63.373 21.8262C61.459 22.1543 59.791 22.209 57.5625 22.209L56.5371 22.209L56.5371 14.0332L62.3203 14.0332ZM73.75 13.1035C76.4844 13.1035 78.1934 14.0059 78.207 15.5098C78.1934 16.9863 76.4844 17.875 73.75 17.8613C71.043 17.875 69.293 16.9863 69.293 15.5098C69.293 14.0059 71.043 13.1035 73.75 13.1035ZM73.75 14.293C71.9453 14.293 70.8652 14.7168 70.8789 15.5098C70.8652 16.2617 71.9453 16.6719 73.75 16.6855C75.5547 16.6719 76.6348 16.2617 76.6348 15.5098C76.6348 14.7168 75.5547 14.293 73.75 14.293ZM78.0293 20.9102L78.0293 25.0664L69.457 25.0664L69.457 20.9102L78.0293 20.9102ZM70.9609 22.1133L70.9609 23.8359L76.5527 23.8359L76.5527 22.1133L70.9609 22.1133ZM79.3965 18.6953L79.3965 19.9258L68.1309 19.9258L68.1309 18.6953L79.3965 18.6953ZM85.8496 13.5547C88.4609 13.5547 90.457 14.9355 90.457 17.041C90.457 19.1738 88.4609 20.5547 85.8496 20.5547C83.252 20.5547 81.2559 19.1738 81.2695 17.041C81.2559 14.9355 83.252 13.5547 85.8496 13.5547ZM85.8496 14.7852C84.0586 14.7715 82.7324 15.6738 82.7324 17.041C82.7324 18.4355 84.0586 19.3105 85.8496 19.3105C87.6543 19.3105 88.9668 18.4355 88.9668 17.041C88.9668 15.6738 87.6543 14.7715 85.8496 14.7852ZM91.5234 22.4141L91.5234 23.6582L80.2305 23.6582L80.2305 22.4141L91.5234 22.4141ZM103.623 22.5234L103.623 23.7812L92.3301 23.7812L92.3301 22.5234L97.1973 22.5234L97.1973 20.5137L93.6699 20.5137L93.6699 16.4668L100.779 16.4668L100.779 14.9355L93.6426 14.9355L93.6426 13.7051L102.283 13.7051L102.283 17.6699L95.1875 17.6699L95.1875 19.2695L102.57 19.2695L102.57 20.5137L98.7012 20.5137L98.7012 22.5234L103.623 22.5234ZM118.102 20.4727L118.102 25.0664L109.939 25.0664L109.939 20.4727L118.102 20.4727ZM111.43 21.6895L111.43 23.8359L116.611 23.8359L116.611 21.6895L111.43 21.6895ZM109.967 13.541L109.967 18.0801C111.621 18.0596 113.228 17.9365 114.943 17.6016L115.107 18.873C113.166 19.2695 111.375 19.3652 109.461 19.3652L108.463 19.3652L108.463 13.541L109.967 13.541ZM118.102 12.8574L118.102 19.9395L116.584 19.9395L116.584 16.2617L113.357 16.2617L113.357 15.0312L116.584 15.0312L116.584 12.8574L118.102 12.8574ZM123.229 13.7598C124.903 13.7598 126.141 15.1543 126.359 17.4102L128.711 17.4102L128.711 12.8574L130.215 12.8574L130.215 25.2305L128.711 25.2305L128.711 18.6406L126.373 18.6406C126.209 21.0264 124.951 22.4961 123.229 22.4961C121.369 22.4961 120.057 20.8145 120.057 18.1211C120.057 15.4551 121.369 13.7598 123.229 13.7598ZM123.229 15.127C122.203 15.127 121.506 16.2344 121.52 18.1211C121.506 20.0215 122.203 21.1289 123.229 21.1289C124.254 21.1289 124.937 20.0215 124.951 18.1211C124.937 16.2344 124.254 15.127 123.229 15.127ZM141.631 12.8574L141.631 17.6836L143.463 17.6836L143.463 18.9551L141.631 18.9551L141.631 25.1895L140.113 25.1895L140.113 12.8574L141.631 12.8574ZM138.363 14.1426C138.363 17.7793 136.859 20.9648 132.744 22.9883L131.883 21.8125C134.891 20.3154 136.518 18.21 136.832 15.4004L132.553 15.4004L132.553 14.1426L138.363 14.1426ZM148.713 16.3711C148.713 18.3945 149.902 20.5273 151.898 21.3613L151.064 22.5645C149.602 21.9355 148.535 20.6367 147.975 19.0645C147.4 20.7598 146.32 22.1816 144.871 22.8652L143.996 21.6758C145.951 20.7734 147.168 18.4766 147.168 16.3711L147.168 15.332L144.447 15.332L144.447 14.0742L151.42 14.0742L151.42 15.332L148.713 15.332L148.713 16.3711ZM154.332 12.8574L154.332 25.2168L152.801 25.2168L152.801 12.8574L154.332 12.8574ZM162.891 13.5C164.777 13.4863 166.158 14.6895 166.172 16.3574C166.158 18.0527 164.777 19.2422 162.891 19.2422C161.018 19.2422 159.596 18.0527 159.609 16.3574C159.596 14.6895 161.018 13.4863 162.891 13.5ZM162.891 14.7441C161.865 14.7441 161.086 15.3867 161.1 16.3574C161.086 17.3418 161.865 17.998 162.891 17.998C163.916 17.998 164.695 17.3418 164.695 16.3574C164.695 15.3867 163.916 14.7441 162.891 14.7441ZM169.221 12.8574L169.221 15.4961L170.943 15.4961L170.943 16.7539L169.221 16.7539L169.221 18.9824L167.703 18.9824L167.703 12.8574L169.221 12.8574ZM162.139 20.2266L162.139 23.6309C162.85 23.5967 163.581 23.4941 164.285 23.2617L164.504 24.4512C163.41 24.834 162.357 24.875 161.305 24.875L160.648 24.875L160.648 20.2266L162.139 20.2266ZM170.301 20.2539L170.301 21.3887L164.08 21.3887L164.08 20.2539L166.459 20.2539L166.459 19.3105L167.949 19.3105L167.949 20.2539L170.301 20.2539ZM167.184 21.7168C168.578 21.7168 169.549 22.4004 169.549 23.4668C169.549 24.5332 168.578 25.2031 167.184 25.2031C165.775 25.2031 164.818 24.5332 164.832 23.4668C164.818 22.4004 165.775 21.7168 167.184 21.7168ZM167.184 22.7695C166.596 22.7832 166.172 23.043 166.186 23.4668C166.172 23.9043 166.596 24.1504 167.184 24.1504C167.758 24.1504 168.182 23.9043 168.182 23.4668C168.182 23.043 167.758 22.7832 167.184 22.7695ZM174.895 13.7598C176.754 13.7598 178.094 15.4551 178.107 18.1211C178.094 20.8145 176.754 22.4961 174.895 22.4961C173.021 22.4961 171.668 20.8145 171.682 18.1211C171.668 15.4551 173.021 13.7598 174.895 13.7598ZM174.895 15.127C173.855 15.127 173.145 16.2344 173.145 18.1211C173.145 20.0215 173.855 21.1289 174.895 21.1289C175.947 21.1289 176.645 20.0215 176.645 18.1211C176.645 16.2344 175.947 15.127 174.895 15.127ZM181.252 12.8574L181.252 17.6016L183.152 17.6016L183.152 18.8867L181.252 18.8867L181.252 25.2168L179.734 25.2168L179.734 12.8574L181.252 12.8574ZM194.965 22.4687L194.965 23.7129L183.672 23.7129L183.672 22.4687L186.283 22.4687L186.283 19.3379C185.299 18.7773 184.704 17.8955 184.711 16.7949C184.697 14.8262 186.639 13.5273 189.291 13.5273C191.957 13.5273 193.898 14.8262 193.898 16.7949C193.898 17.875 193.324 18.7432 192.367 19.3105L192.367 22.4687L194.965 22.4687ZM189.291 14.7305C187.445 14.7305 186.187 15.5098 186.201 16.7949C186.187 18.0664 187.445 18.8594 189.291 18.8594C191.137 18.8594 192.408 18.0664 192.408 16.7949C192.408 15.5098 191.137 14.7305 189.291 14.7305ZM187.787 22.4687L190.822 22.4687L190.822 19.8848C190.351 19.9941 189.838 20.0488 189.291 20.0488C188.758 20.0488 188.252 19.9941 187.787 19.8984L187.787 22.4687ZM198.314 14.1016L198.164 21.0879L196.619 21.0879L196.455 14.1016L198.314 14.1016ZM197.398 24.1094C196.811 24.1094 196.332 23.6309 196.332 23.043C196.332 22.4687 196.811 21.9902 197.398 21.9902C197.959 21.9902 198.451 22.4687 198.451 23.043C198.451 23.6309 197.959 24.1094 197.398 24.1094Z" fill="#195FCF"/>
</svg>
